<svg width="115" height="123" viewBox="0 0 115 123" fill="none" xmlns="http://www.w3.org/2000/svg">
<path d="M25 58.5C25 40.5507 39.5507 26 57.5 26C75.4493 26 90 40.5507 90 58.5V75.7059C90 78.7677 90 80.2986 89.7222 81.5672C88.7197 86.1446 85.1446 89.7197 80.5672 90.7222C79.2986 91 77.7677 91 74.7059 91H57.5C39.5507 91 25 76.4493 25 58.5Z" fill="#53CE75"/>
<g filter="url(#filter0_f_66_1155)">
<path d="M47.8299 37.4467V66.3132C47.8299 69.3181 48.6717 71.705 50.3553 73.4739C52.0603 75.2214 54.4472 76.0952 57.516 76.0952C60.5636 76.0952 62.9292 75.2214 64.6128 73.4739C66.3177 71.705 67.1702 69.3181 67.1702 66.3132V37.4467H76.8244V67.2722C76.8244 72.387 75.0662 76.5214 71.5497 79.6756C68.0546 82.8084 63.3767 84.3748 57.516 84.3748C51.634 84.3748 46.9348 82.8084 43.4184 79.6756C39.9233 76.5214 38.1757 72.387 38.1757 67.2722V37.4467H47.8299Z" fill="black" fill-opacity="0.41"/>
</g>
<path d="M49.6961 41.1862V65.3732C49.6961 67.891 50.4015 69.891 51.8122 71.3731C53.2407 72.8374 55.2407 73.5695 57.8121 73.5695C60.3656 73.5695 62.3477 72.8374 63.7584 71.3731C65.1869 69.891 65.9012 67.891 65.9012 65.3732V41.1862H73.9903V66.1768C73.9903 70.4624 72.5171 73.9267 69.5708 76.5695C66.6423 79.1944 62.7227 80.5069 57.8121 80.5069C52.8836 80.5069 48.9461 79.1944 45.9998 76.5695C43.0713 73.9267 41.607 70.4624 41.607 66.1768V41.1862H49.6961Z" fill="white"/>
<defs>
<filter id="filter0_f_66_1155" x="0.275719" y="-0.453346" width="114.449" height="122.728" filterUnits="userSpaceOnUse" color-interpolation-filters="sRGB">
<feFlood flood-opacity="0" result="BackgroundImageFix"/>
<feBlend mode="normal" in="SourceGraphic" in2="BackgroundImageFix" result="shape"/>
<feGaussianBlur stdDeviation="18.95" result="effect1_foregroundBlur_66_1155"/>
</filter>
</defs>
</svg>
