<svg width="65" height="70" viewBox="0 0 65 70" fill="none" xmlns="http://www.w3.org/2000/svg">
<path d="M0 34.5C0 16.5507 14.5507 2 32.5 2V2C50.4493 2 65 16.5507 65 34.5V34.5C65 52.4493 50.4493 67 32.5 67V67C14.5507 67 0 52.4493 0 34.5V34.5Z" fill="#53CE75"/>
<g filter="url(#filter0_f_66_1155)">
<path d="M21.8299 11.4467V40.3132C21.8299 43.3181 22.6717 45.705 24.3553 47.4739C26.0603 49.2214 28.4472 50.0952 31.516 50.0952C34.5636 50.0952 36.9292 49.2214 38.6128 47.4739C40.3177 45.705 41.1702 43.3181 41.1702 40.3132V11.4467H50.8244V41.2722C50.8244 46.387 49.0662 50.5214 45.5497 53.6756C42.0546 56.8084 37.3767 58.3748 31.516 58.3748C25.634 58.3748 20.9348 56.8084 17.4184 53.6756C13.9233 50.5214 12.1757 46.387 12.1757 41.2722V11.4467H21.8299Z" fill="black" fill-opacity="0.25"/>
</g>
<path d="M23.6961 15.1862V39.3732C23.6961 41.891 24.4015 43.891 25.8122 45.3731C27.2407 46.8374 29.2407 47.5695 31.8121 47.5695C34.3656 47.5695 36.3477 46.8374 37.7584 45.3731C39.1869 43.891 39.9012 41.891 39.9012 39.3732V15.1862H47.9903V40.1768C47.9903 44.4624 46.5171 47.9267 43.5708 50.5695C40.6423 53.1944 36.7227 54.5069 31.8121 54.5069C26.8836 54.5069 22.9461 53.1944 19.9998 50.5695C17.0713 47.9267 15.607 44.4624 15.607 40.1768V15.1862H23.6961Z" fill="white"/>
<defs>
<filter id="filter0_f_66_1155" x="1.37572" y="0.646655" width="60.2486" height="68.5281" filterUnits="userSpaceOnUse" color-interpolation-filters="sRGB">
<feFlood flood-opacity="0" result="BackgroundImageFix"/>
<feBlend mode="normal" in="SourceGraphic" in2="BackgroundImageFix" result="shape"/>
<feGaussianBlur stdDeviation="5.4" result="effect1_foregroundBlur_66_1155"/>
</filter>
</defs>
</svg>
